Coordinates
version=1
nRows=16
nColumns=42
inDegrees=yes

Units are S.I. units (second, meters, Newtons, ...)
If the header above contains a line with 'inDegrees', this indicates whether rotational values are in degrees (yes) or radians (no).

endheader
time	pelvis_tilt	pelvis_list	pelvis_rotation	pelvis_tx	pelvis_ty	pelvis_tz	hip_flexion_r	hip_adduction_r	hip_rotation_r	knee_angle_r	knee_angle_r_beta	ankle_angle_r	subtalar_angle_r	mtp_angle_r	hip_flexion_l	hip_adduction_l	hip_rotation_l	knee_angle_l	knee_angle_l_beta	ankle_angle_l	subtalar_angle_l	mtp_angle_l	lumbar_extension	lumbar_bending	lumbar_rotation	sh_tx_r	sh_ty_r	sh_tz_r	sh_plane_elev_r	sh_elev_r	sh_axial_rot_r	elbow_flex_r	pro_sup_r	sh_tx_l	sh_ty_l	sh_tz_l	sh_plane_elev_l	sh_elev_l	sh_axial_rot_l	elbow_flex_l	pro_sup_l
      0.00000000	    -14.47661079	     -0.58537272	    -33.38299887	     -4.21144161	      1.15047154	      0.37902667	      6.51861582	      7.59853262	    -30.84694869	      0.21599068	      0.00376975	    -33.15317519	     23.12214585	     -5.79536095	     37.89223285	    -24.58302277	    -22.56393514	      8.67218338	      0.15135815	    -46.01542070	     -4.61615700	     -5.79536095	    -10.88013213	     -4.30503907	     35.20842727	     -0.02723464	      0.02590729	     -0.00532734	     -8.20144662	     11.53134651	      5.01279807	     79.47335120	     93.39477396	     -0.02174184	     -0.00511499	     -0.00875944	     19.21115256	      0.26362861	    -18.88995863	     46.07615183	     64.62101323
      0.01666670	    -14.93089055	     -1.08977177	    -33.55235741	     -4.21697479	      1.15030172	      0.38539397	      5.54500327	      7.37708480	    -30.17941146	      0.17620259	      0.00307532	    -30.83923599	     31.66232831	     -5.84609971	     38.25660482	    -25.45690536	    -21.21327806	      7.48744275	      0.13068053	    -44.53083940	     -7.42175365	     -5.84609971	    -10.49832768	     -3.52174753	     34.70428420	     -0.02549694	      0.02010828	     -0.00578983	     -8.35665235	     11.97935337	      6.22657662	     78.12596083	     93.62312788	     -0.02125426	     -0.00681844	     -0.00861813	     17.92971981	      0.32737870	    -18.82477775	     44.19964650	     64.83635062
      0.03333330	    -14.77902286	     -1.74056426	    -33.43409538	     -4.21256966	      1.14797925	      0.38646836	      4.12446754	      7.19057003	    -27.90567580	      0.14166219	      0.00247247	    -27.75365069	     31.22134651	     -6.12967230	     38.13269857	    -25.70538820	    -19.53179012	      7.04806646	      0.12301197	    -42.73493537	     -8.21021527	     -6.12967230	    -11.24343633	     -3.31297568	     34.50758309	     -0.02882833	      0.00981940	     -0.00596399	    -13.92523928	     12.63882027	     11.55618102	     79.31865413	     92.94227943	     -0.02524617	     -0.01022409	     -0.00863140	     16.58767131	      0.32042300	    -17.35549009	     43.18576339	     66.08344525
      0.05000000	    -13.88964563	     -2.30411123	    -33.09771481	     -4.18514648	      1.14855650	      0.38272666	      1.76934304	      6.19034428	    -24.81556297	      0.12239542	      0.00213620	    -24.70966580	     29.14192067	     -6.37378371	     37.35230674	    -25.40839443	    -17.76854568	      7.25649751	      0.12664977	    -40.39012764	     -8.34136194	     -6.37378371	    -12.74806171	     -3.59981087	     34.88043331	     -0.03806044	     -0.00514770	     -0.00583601	    -24.34336833	     14.13008518	     20.51972960	     81.25188575	     91.72922359	     -0.03199149	     -0.01548484	     -0.00864744	     20.70520801	      0.29396434	    -19.69722837	     41.20476057	     65.60186354
      0.06666670	    -12.45234050	     -2.59963283	    -32.84396337	     -4.14601572	      1.14663873	      0.37437273	     -1.08737740	      4.40257265	    -20.35271063	      0.10785503	      0.00188243	    -21.47100460	     24.66148470	     -6.56814622	     36.28004947	    -24.67592608	    -16.66896592	      7.85335509	      0.13706690	    -38.03532031	     -8.36106144	     -6.56814622	    -14.21425776	     -3.83208185	     34.78927992	     -0.04133467	     -0.01401193	     -0.00550208	    -32.26184209	     16.51500336	     27.31390511	     82.39494156	     89.75611296	     -0.03480210	     -0.01733814	     -0.00875890	     26.09802789	      0.24248205	    -22.45965525	     39.20528940	     63.63652291
      0.08333330	    -10.91197293	     -2.93675554	    -32.25852245	     -4.09612392	      1.14662598	      0.36557083	     -4.35298581	      2.57059389	    -15.24067485	      0.10098848	      0.00176258	    -19.53761772	     18.84553570	     -6.63484778	     35.16780261	    -23.72855721	    -15.15681073	      8.92114688	      0.15570339	    -35.61906172	     -9.10797104	     -6.63484778	    -15.80263733	     -3.68757257	     32.96667427	     -0.04159473	     -0.01627264	     -0.00494343	    -32.91444936	     18.00748944	     28.27174313	     81.76656413	     88.34940959	     -0.03447393	     -0.01784573	     -0.00885468	     27.44887277	      0.20514718	    -22.89492066	     38.54138632	     62.87094766
      0.10000000	    -10.55320637	     -1.69179568	    -32.58131745	     -4.02036676	      1.14311283	      0.35316122	     -5.75890507	     -0.36225440	     -9.96761900	      0.11793703	      0.00205839	    -18.23826336	     13.84659870	     -7.20955033	     35.84630793	    -22.42980446	    -14.59057644	     10.34712056	      0.18059132	    -33.74264053	    -12.36883638	     -7.20955033	    -12.72922846	     -4.17222048	     21.42620552	      0.03412466	     -0.01133043	     -0.00592712	     93.99054239	     58.76186259	    -35.02315541	     12.88238255	     36.01294744	      0.02924223	     -0.00044983	     -0.00484483	     69.15158899	     47.95472881	    -35.27295682	      7.23121848	     19.37933937
      0.11666670	     -5.86975176	     -2.03943712	    -31.40939729	     -3.93972897	      1.14336889	      0.33717074	    -11.98681458	     -3.82180780	     -3.48061265	      0.13614185	      0.00237612	    -17.21122776	      3.92605241	     -7.48261815	     31.37074248	    -19.42147962	    -15.11047157	     11.07340783	      0.19326743	    -32.43168383	    -13.13960763	     -7.48261815	    -19.38919614	     -5.16530960	     30.39017234	     -0.04555194	     -0.01854087	     -0.00397511	    -45.61167214	     22.19862608	     38.79555056	     79.92679883	     85.61087170	     -0.04133598	     -0.01874595	     -0.00895193	     40.63090473	      0.15407449	    -29.71306488	     33.17790701	     53.87636900
      0.13333330	     -7.04833575	      0.00332832	    -32.28006098	     -3.86414135	      1.13464044	      0.32102322	    -11.13379967	     -7.14598669	      3.40059699	      0.24184945	      0.00422107	    -20.95103511	     -6.63968175	     -7.49717840	     32.44487469	    -17.60487301	    -15.06020526	     13.06387471	      0.22800763	    -29.32686594	    -16.28788688	     -7.49717840	    -11.84943607	     -5.59251633	     16.21049773	      0.02018260	      0.00985844	     -0.00667994	     77.04183354	     34.25174347	    -43.29043420	     38.57067627	     59.37345788	      0.00726770	      0.01098426	     -0.00638171	     60.75208970	     30.79109458	    -31.27274993	     14.25825953	     18.54653025
      0.15000000	     -5.64206464	      0.66157150	    -32.17478851	     -3.82189320	      1.13212116	      0.31171321	    -13.28477549	    -10.11129350	      8.04803420	      0.86292430	      0.01506087	    -23.38901526	    -15.35711404	     -7.49757154	     31.95750748	    -16.04344966	    -14.83290697	     15.91493597	      0.27776803	    -26.20388062	    -18.71554705	     -7.49757154	    -11.81296660	     -6.28272031	     15.46217852	      0.02943171	      0.01853049	     -0.00653907	     65.93749232	     24.54702384	    -39.92839779	     48.18155246	     62.81314898	      0.01613937	      0.01705698	     -0.00649360	     54.27995603	     25.48112026	    -29.59762795	     19.08514769	     21.09375069
      0.16666670	     -4.83201129	      1.65043320	    -33.13912379	     -3.79784910	      1.13223507	      0.30744255	    -10.89997985	    -13.03096242	      5.24647871	      8.28643120	      0.14462551	    -14.10494778	     -5.94744657	     -7.49866407	     32.07600692	    -15.14711036	    -15.31894896	     17.32230308	      0.30233122	    -26.21474466	    -24.49669970	     -7.49866407	    -11.46646462	     -7.15404240	     18.18087121	      0.03690543	      0.02261696	     -0.00611429	     48.98548429	     16.19198928	    -33.49051682	     56.12511871	     76.84557574	      0.03026771	      0.01816820	     -0.00656602	     53.44738439	     23.58078832	    -28.30010383	     20.32586267	     26.55712252
      0.18333330	     -3.88032897	      2.56103297	    -33.69876261	     -3.77396708	      1.13317588	      0.30003855	     -9.53480520	    -15.69103763	      6.80052431	     13.53881844	      0.23629696	    -10.88289198	     -5.71485711	     -7.49932827	     31.53400617	    -13.68721023	    -15.68724656	     18.05935462	      0.31519520	    -26.18676077	    -28.61099765	     -7.49932827	    -11.40397093	     -8.20067419	     18.50240293	      0.03987386	      0.02142949	     -0.00500887	     33.56332628	     11.44047248	    -23.16846326	     59.53192553	     81.64186753	      0.03458496	      0.01932778	     -0.00632202	     51.68590263	     22.20870302	    -27.59924318	     21.51250762	     28.37704714
      0.20000000	     -3.26726041	      3.50741662	    -34.10564458	     -3.73977371	      1.13334654	      0.28892789	     -8.28137839	    -17.69659299	      9.64060048	     17.55754767	      0.30643702	     -9.27609495	     -7.32762455	     -7.49970923	     31.45631863	    -12.37459191	    -16.14172610	     19.12039534	      0.33371385	    -25.26357800	    -32.01854737	     -7.49970923	    -11.42591033	     -9.09380026	     13.13819631	      0.04301505	      0.01416221	     -0.00403329	     23.46563401	      9.31467535	    -11.22556098	     59.98421701	     86.22522222	      0.03854359	      0.02026226	     -0.00503606	     22.02889584	     14.00832413	    -20.23698513	     32.93592451	     43.22885795
      0.21666670	     -2.61685681	      4.15409363	    -34.32030468	     -3.71338113	      1.13305387	      0.27807865	     -7.06818149	    -18.96770075	     12.59089452	     21.11044932	      0.36844685	     -8.82309679	    -10.09848847	     -7.49985257	     30.91463587	    -11.02378242	    -16.64081846	     19.80085442	      0.34559010	    -23.50789468	    -33.21887012	     -7.49985257	    -11.66138380	    -10.00529863	      9.97719896	      0.04243133	      0.00621020	     -0.00344645	     17.97380826	      9.43650491	     -3.72724093	     59.01446736	     86.63373912	      0.03729679	      0.01891196	     -0.00351528	      2.19856838	      9.99815993	    -12.51430030	     37.57648992	     51.76076803
      0.23333330	     -1.93670096	      4.79082970	    -34.30324954	     -3.71084123	      1.13368133	      0.27705559	     -5.75460615	    -19.78796651	     15.05939728	     24.66333463	      0.43045639	     -8.32188294	    -11.69853504	     -7.49986228	     29.89144156	     -9.39105223	    -17.12214962	     19.83436478	      0.34617497	    -21.65864524	    -33.66923973	     -7.49986228	    -11.59345322	    -10.85231812	      8.54232065	      0.04474907	      0.00339483	     -0.00351637	     19.69316614	      9.04662814	     -4.56979092	     57.35501485	     85.10849596	      0.04118056	      0.02051334	     -0.00342419	      4.75906753	     12.44861626	    -12.31003297	     37.82156853	     51.68661376
      0.25000000	     -1.65323905	      5.60042126	    -34.09739118	     -3.71336563	      1.13337969	      0.28244075	     -3.62576990	    -19.93378839	     17.85829536	     28.44736625	      0.49650020	     -8.50495477	    -14.35881115	     -7.49993120	     28.96015668	     -7.49394985	    -17.31761261	     19.34003285	      0.33754725	    -20.32687563	    -34.04444711	     -7.49993120	    -11.06901053	    -11.85145685	     11.17289574	      0.04117983	      0.00511972	     -0.00314348	     17.46489611	      7.22636774	     -6.94602100	     55.26731181	     88.29225613	      0.03454576	      0.02321071	     -0.00437277	     35.82736964	     21.19480423	    -24.41260375	     27.90561921	     35.39737995
